<mxfile host="65bd71144e">
  <diagram id="phase1-results" name="Phase 1 - Results">
    <mxGraphModel dx="1422" dy="794" grid="1" gridSize="10" guides="1" tooltips="1" connect="1" arrows="1" fold="1" page="1" pageScale="1" pageWidth="375" pageHeight="812" math="0" shadow="0">
      <root>
        <mxCell id="0" />
        <mxCell id="1" parent="0" />
        <mxCell id="2" value="" style="rounded=1;whiteSpace=wrap;html=1;strokeWidth=3;strokeColor=#666666;fillColor=none;" vertex="1" parent="1">
          <mxGeometry x="50" y="50" width="275" height="550" as="geometry" />
        </mxCell>
        <mxCell id="3" value="9:41 AM    ðŸ“¶ðŸ“¶ðŸ“¶ ðŸ”‹85%" style="text;html=1;strokeColor=none;fillColor=none;align=center;verticalAlign=middle;whiteSpace=wrap;rounded=0;fontSize=12;" vertex="1" parent="1">
          <mxGeometry x="70" y="65" width="235" height="20" as="geometry" />
        </mxCell>
        <mxCell id="4" value="ðŸŽ‰ Great news!" style="text;html=1;strokeColor=none;fillColor=none;align=center;verticalAlign=middle;whiteSpace=wrap;rounded=0;fontSize=20;fontStyle=1;" vertex="1" parent="1">
          <mxGeometry x="80" y="110" width="215" height="35" as="geometry" />
        </mxCell>
        <mxCell id="5" value="Your projected retirement savings:" style="text;html=1;strokeColor=none;fillColor=none;align=center;verticalAlign=middle;whiteSpace=wrap;rounded=0;fontSize=14;fontColor=#666666;" vertex="1" parent="1">
          <mxGeometry x="80" y="165" width="215" height="20" as="geometry" />
        </mxCell>
        <mxCell id="6" value="$1.47M" style="text;html=1;strokeColor=none;fillColor=none;align=center;verticalAlign=middle;whiteSpace=wrap;rounded=0;fontSize=36;fontStyle=1;fontColor=#007acc;" vertex="1" parent="1">
          <mxGeometry x="80" y="195" width="215" height="50" as="geometry" />
        </mxCell>
        <mxCell id="7" value="Your money will last 38 years in retirement" style="text;html=1;strokeColor=none;fillColor=none;align=center;verticalAlign=middle;whiteSpace=wrap;rounded=0;fontSize=14;fontColor=#666666;" vertex="1" parent="1">
          <mxGeometry x="80" y="260" width="215" height="20" as="geometry" />
        </mxCell>
        <mxCell id="7a" value="View calculation details" style="text;html=1;strokeColor=none;fillColor=none;align=center;verticalAlign=middle;whiteSpace=wrap;rounded=0;fontSize=11;fontColor=#007acc;textDecoration=underline;" vertex="1" parent="1">
          <mxGeometry x="80" y="285" width="215" height="15" as="geometry" />
        </mxCell>
        <mxCell id="8" value="You're set for life! âœ…" style="text;html=1;strokeColor=none;fillColor=none;align=center;verticalAlign=middle;whiteSpace=wrap;rounded=0;fontSize=16;fontStyle=1;fontColor=#28a745;" vertex="1" parent="1">
          <mxGeometry x="80" y="315" width="215" height="30" as="geometry" />
        </mxCell>
        <mxCell id="9" value="Want a more accurate projection? Answer 3 more quick questions." style="text;html=1;strokeColor=none;fillColor=none;align=center;verticalAlign=middle;whiteSpace=wrap;rounded=0;fontSize=12;fontColor=#666666;" vertex="1" parent="1">
          <mxGeometry x="80" y="365" width="215" height="25" as="geometry" />
        </mxCell>
        <mxCell id="10" value="Get More Accurate Results ðŸ“Š" style="rounded=1;whiteSpace=wrap;html=1;fillColor=#007acc;strokeColor=#005a9e;fontColor=#ffffff;fontSize=14;fontStyle=1;" vertex="1" parent="1">
          <mxGeometry x="80" y="415" width="215" height="40" as="geometry" />
        </mxCell>
        <mxCell id="11" value="Save This Projection" style="rounded=1;whiteSpace=wrap;html=1;fillColor=#ffffff;strokeColor=#007acc;fontColor=#007acc;fontSize=12;" vertex="1" parent="1">
          <mxGeometry x="80" y="480" width="100" height="30" as="geometry" />
        </mxCell>
        <mxCell id="12" value="Share Results" style="rounded=1;whiteSpace=wrap;html=1;fillColor=#ffffff;strokeColor=#007acc;fontColor=#007acc;fontSize=12;" vertex="1" parent="1">
          <mxGeometry x="195" y="480" width="100" height="30" as="geometry" />
        </mxCell>
      </root>
    </mxGraphModel>
  </diagram>
</mxfile>